<mxfile host="app.diagrams.net" modified="2021-10-02T19:02:46.976Z" agent="5.0 (Windows NT 6.3; Win64; x64) AppleWebKit/537.36 (KHTML, like Gecko) Chrome/92.0.4515.131 Safari/537.36 OPR/78.0.4093.153" etag="ijISjPzaWLhmsPV1R1hs" version="15.3.3" type="github">
  <diagram id="R2lEEEUBdFMjLlhIrx00" name="Page-1">
    <mxGraphModel dx="827" dy="445" grid="1" gridSize="10" guides="1" tooltips="1" connect="1" arrows="1" fold="1" page="1" pageScale="1" pageWidth="850" pageHeight="1100" math="0" shadow="0" extFonts="Permanent Marker^https://fonts.googleapis.com/css?family=Permanent+Marker">
      <root>
        <mxCell id="0" />
        <mxCell id="1" parent="0" />
        <mxCell id="o4KRChbn16GOn_B5udHL-1" value="User" style="swimlane;fontStyle=0;childLayout=stackLayout;horizontal=1;startSize=30;horizontalStack=0;resizeParent=1;resizeParentMax=0;resizeLast=0;collapsible=1;marginBottom=0;hachureGap=4;pointerEvents=0;" vertex="1" parent="1">
          <mxGeometry x="30" y="120" width="140" height="400" as="geometry" />
        </mxCell>
        <mxCell id="o4KRChbn16GOn_B5udHL-2" value="+Id:int " style="text;strokeColor=none;fillColor=none;align=left;verticalAlign=middle;spacingLeft=4;spacingRight=4;overflow=hidden;points=[[0,0.5],[1,0.5]];portConstraint=eastwest;rotatable=0;" vertex="1" parent="o4KRChbn16GOn_B5udHL-1">
          <mxGeometry y="30" width="140" height="30" as="geometry" />
        </mxCell>
        <mxCell id="o4KRChbn16GOn_B5udHL-3" value="+mail:string" style="text;strokeColor=none;fillColor=none;align=left;verticalAlign=middle;spacingLeft=4;spacingRight=4;overflow=hidden;points=[[0,0.5],[1,0.5]];portConstraint=eastwest;rotatable=0;" vertex="1" parent="o4KRChbn16GOn_B5udHL-1">
          <mxGeometry y="60" width="140" height="30" as="geometry" />
        </mxCell>
        <mxCell id="o4KRChbn16GOn_B5udHL-4" value="+name:string" style="text;strokeColor=none;fillColor=none;align=left;verticalAlign=middle;spacingLeft=4;spacingRight=4;overflow=hidden;points=[[0,0.5],[1,0.5]];portConstraint=eastwest;rotatable=0;" vertex="1" parent="o4KRChbn16GOn_B5udHL-1">
          <mxGeometry y="90" width="140" height="30" as="geometry" />
        </mxCell>
        <mxCell id="o4KRChbn16GOn_B5udHL-6" value="+TelNumber:Number" style="text;strokeColor=none;fillColor=none;align=left;verticalAlign=middle;spacingLeft=4;spacingRight=4;overflow=hidden;points=[[0,0.5],[1,0.5]];portConstraint=eastwest;rotatable=0;hachureGap=4;pointerEvents=0;" vertex="1" parent="o4KRChbn16GOn_B5udHL-1">
          <mxGeometry y="120" width="140" height="30" as="geometry" />
        </mxCell>
        <mxCell id="o4KRChbn16GOn_B5udHL-7" value="+Password:string" style="text;strokeColor=none;fillColor=none;align=left;verticalAlign=middle;spacingLeft=4;spacingRight=4;overflow=hidden;points=[[0,0.5],[1,0.5]];portConstraint=eastwest;rotatable=0;hachureGap=4;pointerEvents=0;" vertex="1" parent="o4KRChbn16GOn_B5udHL-1">
          <mxGeometry y="150" width="140" height="30" as="geometry" />
        </mxCell>
        <mxCell id="o4KRChbn16GOn_B5udHL-11" value="" style="html=1;endArrow=open;sourcePerimeterSpacing=8;targetPerimeterSpacing=8;entryX=1.007;entryY=-0.033;entryDx=0;entryDy=0;entryPerimeter=0;strokeColor=default;labelBackgroundColor=#000000;strokeWidth=3;shape=link;width=63;" edge="1" parent="o4KRChbn16GOn_B5udHL-1" target="o4KRChbn16GOn_B5udHL-5">
          <mxGeometry width="100" relative="1" as="geometry">
            <mxPoint y="180" as="sourcePoint" />
            <mxPoint x="100" y="180" as="targetPoint" />
          </mxGeometry>
        </mxCell>
        <mxCell id="o4KRChbn16GOn_B5udHL-17" value="+Rating:Number" style="text;strokeColor=none;fillColor=none;align=left;verticalAlign=middle;spacingLeft=4;spacingRight=4;overflow=hidden;points=[[0,0.5],[1,0.5]];portConstraint=eastwest;rotatable=0;hachureGap=4;pointerEvents=0;" vertex="1" parent="o4KRChbn16GOn_B5udHL-1">
          <mxGeometry y="180" width="140" height="30" as="geometry" />
        </mxCell>
        <mxCell id="o4KRChbn16GOn_B5udHL-12" value="" style="line;strokeWidth=2;html=1;hachureGap=4;pointerEvents=0;" vertex="1" parent="o4KRChbn16GOn_B5udHL-1">
          <mxGeometry y="210" width="140" height="10" as="geometry" />
        </mxCell>
        <mxCell id="o4KRChbn16GOn_B5udHL-5" value="+Login()" style="text;strokeColor=none;fillColor=none;align=left;verticalAlign=middle;spacingLeft=4;spacingRight=4;overflow=hidden;points=[[0,0.5],[1,0.5]];portConstraint=eastwest;rotatable=0;hachureGap=4;pointerEvents=0;labelBorderColor=none;" vertex="1" parent="o4KRChbn16GOn_B5udHL-1">
          <mxGeometry y="220" width="140" height="30" as="geometry" />
        </mxCell>
        <mxCell id="o4KRChbn16GOn_B5udHL-8" value="+addEvent()" style="text;strokeColor=none;fillColor=none;align=left;verticalAlign=middle;spacingLeft=4;spacingRight=4;overflow=hidden;points=[[0,0.5],[1,0.5]];portConstraint=eastwest;rotatable=0;hachureGap=4;pointerEvents=0;" vertex="1" parent="o4KRChbn16GOn_B5udHL-1">
          <mxGeometry y="250" width="140" height="30" as="geometry" />
        </mxCell>
        <mxCell id="o4KRChbn16GOn_B5udHL-13" value="+deleteEvent()" style="text;strokeColor=none;fillColor=none;align=left;verticalAlign=middle;spacingLeft=4;spacingRight=4;overflow=hidden;points=[[0,0.5],[1,0.5]];portConstraint=eastwest;rotatable=0;hachureGap=4;pointerEvents=0;" vertex="1" parent="o4KRChbn16GOn_B5udHL-1">
          <mxGeometry y="280" width="140" height="30" as="geometry" />
        </mxCell>
        <mxCell id="o4KRChbn16GOn_B5udHL-16" value="+editEvent()" style="text;strokeColor=none;fillColor=none;align=left;verticalAlign=middle;spacingLeft=4;spacingRight=4;overflow=hidden;points=[[0,0.5],[1,0.5]];portConstraint=eastwest;rotatable=0;hachureGap=4;pointerEvents=0;" vertex="1" parent="o4KRChbn16GOn_B5udHL-1">
          <mxGeometry y="310" width="140" height="30" as="geometry" />
        </mxCell>
        <mxCell id="o4KRChbn16GOn_B5udHL-15" value="+book()" style="text;strokeColor=none;fillColor=none;align=left;verticalAlign=middle;spacingLeft=4;spacingRight=4;overflow=hidden;points=[[0,0.5],[1,0.5]];portConstraint=eastwest;rotatable=0;hachureGap=4;pointerEvents=0;" vertex="1" parent="o4KRChbn16GOn_B5udHL-1">
          <mxGeometry y="340" width="140" height="30" as="geometry" />
        </mxCell>
        <mxCell id="o4KRChbn16GOn_B5udHL-14" value="+rate()" style="text;strokeColor=none;fillColor=none;align=left;verticalAlign=middle;spacingLeft=4;spacingRight=4;overflow=hidden;points=[[0,0.5],[1,0.5]];portConstraint=eastwest;rotatable=0;hachureGap=4;pointerEvents=0;" vertex="1" parent="o4KRChbn16GOn_B5udHL-1">
          <mxGeometry y="370" width="140" height="30" as="geometry" />
        </mxCell>
        <mxCell id="o4KRChbn16GOn_B5udHL-18" value="Reservation" style="swimlane;fontStyle=0;childLayout=stackLayout;horizontal=1;startSize=30;horizontalStack=0;resizeParent=1;resizeParentMax=0;resizeLast=0;collapsible=1;marginBottom=0;hachureGap=4;pointerEvents=0;strokeColor=default;" vertex="1" parent="1">
          <mxGeometry x="580" y="370" width="140" height="90" as="geometry" />
        </mxCell>
        <mxCell id="o4KRChbn16GOn_B5udHL-19" value="+idRes:int" style="text;strokeColor=none;fillColor=none;align=left;verticalAlign=middle;spacingLeft=4;spacingRight=4;overflow=hidden;points=[[0,0.5],[1,0.5]];portConstraint=eastwest;rotatable=0;" vertex="1" parent="o4KRChbn16GOn_B5udHL-18">
          <mxGeometry y="30" width="140" height="30" as="geometry" />
        </mxCell>
        <mxCell id="o4KRChbn16GOn_B5udHL-20" value="+isAproved:boolean" style="text;strokeColor=none;fillColor=none;align=left;verticalAlign=middle;spacingLeft=4;spacingRight=4;overflow=hidden;points=[[0,0.5],[1,0.5]];portConstraint=eastwest;rotatable=0;" vertex="1" parent="o4KRChbn16GOn_B5udHL-18">
          <mxGeometry y="60" width="140" height="30" as="geometry" />
        </mxCell>
        <mxCell id="o4KRChbn16GOn_B5udHL-22" value="Visitor" style="swimlane;fontStyle=0;childLayout=stackLayout;horizontal=1;startSize=30;horizontalStack=0;resizeParent=1;resizeParentMax=0;resizeLast=0;collapsible=1;marginBottom=0;hachureGap=4;pointerEvents=0;strokeColor=default;" vertex="1" parent="1">
          <mxGeometry x="210" y="400" width="140" height="120" as="geometry" />
        </mxCell>
        <mxCell id="o4KRChbn16GOn_B5udHL-25" value="" style="text;strokeColor=default;fillColor=none;align=left;verticalAlign=middle;spacingLeft=4;spacingRight=4;overflow=hidden;points=[[0,0.5],[1,0.5]];portConstraint=eastwest;rotatable=0;" vertex="1" parent="o4KRChbn16GOn_B5udHL-22">
          <mxGeometry y="30" width="140" height="30" as="geometry" />
        </mxCell>
        <mxCell id="o4KRChbn16GOn_B5udHL-23" value="+Search()" style="text;strokeColor=none;fillColor=none;align=left;verticalAlign=middle;spacingLeft=4;spacingRight=4;overflow=hidden;points=[[0,0.5],[1,0.5]];portConstraint=eastwest;rotatable=0;" vertex="1" parent="o4KRChbn16GOn_B5udHL-22">
          <mxGeometry y="60" width="140" height="30" as="geometry" />
        </mxCell>
        <mxCell id="o4KRChbn16GOn_B5udHL-24" value="+SignUp()" style="text;strokeColor=none;fillColor=none;align=left;verticalAlign=middle;spacingLeft=4;spacingRight=4;overflow=hidden;points=[[0,0.5],[1,0.5]];portConstraint=eastwest;rotatable=0;" vertex="1" parent="o4KRChbn16GOn_B5udHL-22">
          <mxGeometry y="90" width="140" height="30" as="geometry" />
        </mxCell>
        <mxCell id="o4KRChbn16GOn_B5udHL-35" value="Admin" style="swimlane;fontStyle=0;childLayout=stackLayout;horizontal=1;startSize=30;horizontalStack=0;resizeParent=1;resizeParentMax=0;resizeLast=0;collapsible=1;marginBottom=0;hachureGap=4;pointerEvents=0;" vertex="1" parent="1">
          <mxGeometry x="400" y="120" width="140" height="340" as="geometry" />
        </mxCell>
        <mxCell id="o4KRChbn16GOn_B5udHL-36" value="+Id:int " style="text;strokeColor=none;fillColor=none;align=left;verticalAlign=middle;spacingLeft=4;spacingRight=4;overflow=hidden;points=[[0,0.5],[1,0.5]];portConstraint=eastwest;rotatable=0;" vertex="1" parent="o4KRChbn16GOn_B5udHL-35">
          <mxGeometry y="30" width="140" height="30" as="geometry" />
        </mxCell>
        <mxCell id="o4KRChbn16GOn_B5udHL-37" value="+mail:string" style="text;strokeColor=none;fillColor=none;align=left;verticalAlign=middle;spacingLeft=4;spacingRight=4;overflow=hidden;points=[[0,0.5],[1,0.5]];portConstraint=eastwest;rotatable=0;" vertex="1" parent="o4KRChbn16GOn_B5udHL-35">
          <mxGeometry y="60" width="140" height="30" as="geometry" />
        </mxCell>
        <mxCell id="o4KRChbn16GOn_B5udHL-38" value="+name:string" style="text;strokeColor=none;fillColor=none;align=left;verticalAlign=middle;spacingLeft=4;spacingRight=4;overflow=hidden;points=[[0,0.5],[1,0.5]];portConstraint=eastwest;rotatable=0;" vertex="1" parent="o4KRChbn16GOn_B5udHL-35">
          <mxGeometry y="90" width="140" height="30" as="geometry" />
        </mxCell>
        <mxCell id="o4KRChbn16GOn_B5udHL-39" value="+TelNumber:Number" style="text;strokeColor=none;fillColor=none;align=left;verticalAlign=middle;spacingLeft=4;spacingRight=4;overflow=hidden;points=[[0,0.5],[1,0.5]];portConstraint=eastwest;rotatable=0;hachureGap=4;pointerEvents=0;" vertex="1" parent="o4KRChbn16GOn_B5udHL-35">
          <mxGeometry y="120" width="140" height="30" as="geometry" />
        </mxCell>
        <mxCell id="o4KRChbn16GOn_B5udHL-40" value="+Password:string" style="text;strokeColor=none;fillColor=none;align=left;verticalAlign=middle;spacingLeft=4;spacingRight=4;overflow=hidden;points=[[0,0.5],[1,0.5]];portConstraint=eastwest;rotatable=0;hachureGap=4;pointerEvents=0;" vertex="1" parent="o4KRChbn16GOn_B5udHL-35">
          <mxGeometry y="150" width="140" height="30" as="geometry" />
        </mxCell>
        <mxCell id="o4KRChbn16GOn_B5udHL-42" value="+Rating:Number" style="text;strokeColor=none;fillColor=none;align=left;verticalAlign=middle;spacingLeft=4;spacingRight=4;overflow=hidden;points=[[0,0.5],[1,0.5]];portConstraint=eastwest;rotatable=0;hachureGap=4;pointerEvents=0;" vertex="1" parent="o4KRChbn16GOn_B5udHL-35">
          <mxGeometry y="180" width="140" height="30" as="geometry" />
        </mxCell>
        <mxCell id="o4KRChbn16GOn_B5udHL-43" value="" style="line;strokeWidth=2;html=1;hachureGap=4;pointerEvents=0;" vertex="1" parent="o4KRChbn16GOn_B5udHL-35">
          <mxGeometry y="210" width="140" height="10" as="geometry" />
        </mxCell>
        <mxCell id="o4KRChbn16GOn_B5udHL-44" value="+Login()" style="text;strokeColor=none;fillColor=none;align=left;verticalAlign=middle;spacingLeft=4;spacingRight=4;overflow=hidden;points=[[0,0.5],[1,0.5]];portConstraint=eastwest;rotatable=0;hachureGap=4;pointerEvents=0;labelBorderColor=none;" vertex="1" parent="o4KRChbn16GOn_B5udHL-35">
          <mxGeometry y="220" width="140" height="30" as="geometry" />
        </mxCell>
        <mxCell id="o4KRChbn16GOn_B5udHL-45" value="+postEvent()" style="text;strokeColor=none;fillColor=none;align=left;verticalAlign=middle;spacingLeft=4;spacingRight=4;overflow=hidden;points=[[0,0.5],[1,0.5]];portConstraint=eastwest;rotatable=0;hachureGap=4;pointerEvents=0;" vertex="1" parent="o4KRChbn16GOn_B5udHL-35">
          <mxGeometry y="250" width="140" height="30" as="geometry" />
        </mxCell>
        <mxCell id="o4KRChbn16GOn_B5udHL-46" value="+deleteEvent()" style="text;strokeColor=none;fillColor=none;align=left;verticalAlign=middle;spacingLeft=4;spacingRight=4;overflow=hidden;points=[[0,0.5],[1,0.5]];portConstraint=eastwest;rotatable=0;hachureGap=4;pointerEvents=0;" vertex="1" parent="o4KRChbn16GOn_B5udHL-35">
          <mxGeometry y="280" width="140" height="30" as="geometry" />
        </mxCell>
        <mxCell id="o4KRChbn16GOn_B5udHL-48" value="+userVerif()" style="text;strokeColor=none;fillColor=none;align=left;verticalAlign=middle;spacingLeft=4;spacingRight=4;overflow=hidden;points=[[0,0.5],[1,0.5]];portConstraint=eastwest;rotatable=0;hachureGap=4;pointerEvents=0;" vertex="1" parent="o4KRChbn16GOn_B5udHL-35">
          <mxGeometry y="310" width="140" height="30" as="geometry" />
        </mxCell>
        <mxCell id="o4KRChbn16GOn_B5udHL-50" value="Event" style="swimlane;fontStyle=0;childLayout=stackLayout;horizontal=1;startSize=30;horizontalStack=0;resizeParent=1;resizeParentMax=0;resizeLast=0;collapsible=1;marginBottom=0;hachureGap=4;pointerEvents=0;strokeColor=default;" vertex="1" parent="1">
          <mxGeometry x="480" y="510" width="140" height="330" as="geometry" />
        </mxCell>
        <mxCell id="o4KRChbn16GOn_B5udHL-51" value="+idEvent:int" style="text;strokeColor=none;fillColor=none;align=left;verticalAlign=middle;spacingLeft=4;spacingRight=4;overflow=hidden;points=[[0,0.5],[1,0.5]];portConstraint=eastwest;rotatable=0;" vertex="1" parent="o4KRChbn16GOn_B5udHL-50">
          <mxGeometry y="30" width="140" height="30" as="geometry" />
        </mxCell>
        <mxCell id="o4KRChbn16GOn_B5udHL-52" value="+eventName:String" style="text;strokeColor=none;fillColor=none;align=left;verticalAlign=middle;spacingLeft=4;spacingRight=4;overflow=hidden;points=[[0,0.5],[1,0.5]];portConstraint=eastwest;rotatable=0;" vertex="1" parent="o4KRChbn16GOn_B5udHL-50">
          <mxGeometry y="60" width="140" height="30" as="geometry" />
        </mxCell>
        <mxCell id="o4KRChbn16GOn_B5udHL-53" value="+eventDesc:String" style="text;strokeColor=none;fillColor=none;align=left;verticalAlign=middle;spacingLeft=4;spacingRight=4;overflow=hidden;points=[[0,0.5],[1,0.5]];portConstraint=eastwest;rotatable=0;" vertex="1" parent="o4KRChbn16GOn_B5udHL-50">
          <mxGeometry y="90" width="140" height="30" as="geometry" />
        </mxCell>
        <mxCell id="o4KRChbn16GOn_B5udHL-54" value="+Image:String" style="text;strokeColor=none;fillColor=none;align=left;verticalAlign=middle;spacingLeft=4;spacingRight=4;overflow=hidden;points=[[0,0.5],[1,0.5]];portConstraint=eastwest;rotatable=0;hachureGap=4;pointerEvents=0;" vertex="1" parent="o4KRChbn16GOn_B5udHL-50">
          <mxGeometry y="120" width="140" height="30" as="geometry" />
        </mxCell>
        <mxCell id="o4KRChbn16GOn_B5udHL-55" value="+Category:String" style="text;strokeColor=none;fillColor=none;align=left;verticalAlign=middle;spacingLeft=4;spacingRight=4;overflow=hidden;points=[[0,0.5],[1,0.5]];portConstraint=eastwest;rotatable=0;hachureGap=4;pointerEvents=0;" vertex="1" parent="o4KRChbn16GOn_B5udHL-50">
          <mxGeometry y="150" width="140" height="30" as="geometry" />
        </mxCell>
        <mxCell id="o4KRChbn16GOn_B5udHL-60" value="+Location:String" style="text;strokeColor=none;fillColor=none;align=left;verticalAlign=middle;spacingLeft=4;spacingRight=4;overflow=hidden;points=[[0,0.5],[1,0.5]];portConstraint=eastwest;rotatable=0;hachureGap=4;pointerEvents=0;" vertex="1" parent="o4KRChbn16GOn_B5udHL-50">
          <mxGeometry y="180" width="140" height="30" as="geometry" />
        </mxCell>
        <mxCell id="o4KRChbn16GOn_B5udHL-56" value="+isFree:Boolean" style="text;strokeColor=none;fillColor=none;align=left;verticalAlign=middle;spacingLeft=4;spacingRight=4;overflow=hidden;points=[[0,0.5],[1,0.5]];portConstraint=eastwest;rotatable=0;hachureGap=4;pointerEvents=0;" vertex="1" parent="o4KRChbn16GOn_B5udHL-50">
          <mxGeometry y="210" width="140" height="30" as="geometry" />
        </mxCell>
        <mxCell id="o4KRChbn16GOn_B5udHL-57" value="+Price:String" style="text;strokeColor=none;fillColor=none;align=left;verticalAlign=middle;spacingLeft=4;spacingRight=4;overflow=hidden;points=[[0,0.5],[1,0.5]];portConstraint=eastwest;rotatable=0;hachureGap=4;pointerEvents=0;" vertex="1" parent="o4KRChbn16GOn_B5udHL-50">
          <mxGeometry y="240" width="140" height="30" as="geometry" />
        </mxCell>
        <mxCell id="o4KRChbn16GOn_B5udHL-58" value="+eventDate:Date" style="text;strokeColor=none;fillColor=none;align=left;verticalAlign=middle;spacingLeft=4;spacingRight=4;overflow=hidden;points=[[0,0.5],[1,0.5]];portConstraint=eastwest;rotatable=0;hachureGap=4;pointerEvents=0;" vertex="1" parent="o4KRChbn16GOn_B5udHL-50">
          <mxGeometry y="270" width="140" height="30" as="geometry" />
        </mxCell>
        <mxCell id="o4KRChbn16GOn_B5udHL-59" value="+CreationDate:Date" style="text;strokeColor=none;fillColor=none;align=left;verticalAlign=middle;spacingLeft=4;spacingRight=4;overflow=hidden;points=[[0,0.5],[1,0.5]];portConstraint=eastwest;rotatable=0;hachureGap=4;pointerEvents=0;" vertex="1" parent="o4KRChbn16GOn_B5udHL-50">
          <mxGeometry y="300" width="140" height="30" as="geometry" />
        </mxCell>
      </root>
    </mxGraphModel>
  </diagram>
</mxfile>
